<svg id="Logo" xmlns="http://www.w3.org/2000/svg" viewBox="0 0 634.98 110"><defs><style>.cls-1{fill:#fff;}</style></defs><title>logo-horizontal-white</title><g id="Logo-2"><g id="Soundbars"><rect class="cls-1" y="30" width="8" height="50" rx="2" ry="2"/><rect class="cls-1" x="35.16" y="15" width="8" height="80" rx="2" ry="2"/><rect class="cls-1" x="70.33" width="8" height="110" rx="2" ry="2"/><rect class="cls-1" x="105.49" y="15" width="8" height="80" rx="2" ry="2"/><rect class="cls-1" x="140.65" y="30" width="8" height="50" rx="2" ry="2"/><rect class="cls-1" x="175.82" y="15" width="8" height="80" rx="2" ry="2"/><rect class="cls-1" x="210.98" width="8" height="110" rx="2" ry="2"/><rect class="cls-1" x="246.14" y="15" width="8" height="80" rx="2" ry="2"/><rect class="cls-1" x="281.31" y="30" width="8" height="50" rx="2" ry="2"/></g><path class="cls-1" d="M343.56,68.82a11.82,11.82,0,0,1-4.45-3.16,5.32,5.32,0,0,1-1.45-3.1,1.22,1.22,0,0,1,.38-0.94,1.3,1.3,0,0,1,.92-0.35h4.84a1,1,0,0,1,.83.47L346,62.86a7.82,7.82,0,0,0,2.36,1.39,8.19,8.19,0,0,0,2.92.5,7.18,7.18,0,0,0,3.83-.92,2.91,2.91,0,0,0,1.48-2.62,2.73,2.73,0,0,0-.68-1.92,6.13,6.13,0,0,0-2.42-1.36,46.94,46.94,0,0,0-5.22-1.39q-5-1.06-7.4-3.25a7.45,7.45,0,0,1-2.39-5.78,7.81,7.81,0,0,1,1.42-4.45,10.2,10.2,0,0,1,4.22-3.42,15.52,15.52,0,0,1,6.7-1.33,17.12,17.12,0,0,1,6.9,1.27,12,12,0,0,1,4.4,3,5.16,5.16,0,0,1,1.5,3.13,1.31,1.31,0,0,1-1.3,1.3h-4.42a1.18,1.18,0,0,1-1-.47q-0.41-.29-1.33-1.09a7.54,7.54,0,0,0-2-1.27,7,7,0,0,0-2.71-.47,5.28,5.28,0,0,0-3.36.94,3,3,0,0,0-1.18,2.48,2.76,2.76,0,0,0,.56,1.77,5.17,5.17,0,0,0,2.27,1.33,35.72,35.72,0,0,0,5.13,1.27q10.62,2.07,10.62,9.26a8,8,0,0,1-3.63,6.79q-3.63,2.6-10.12,2.6A18.24,18.24,0,0,1,343.56,68.82Z"/><path class="cls-1" d="M373.66,66.63q-3.78-3.54-4.07-9.79l-0.06-2.6,0.06-2.6a13.62,13.62,0,0,1,4.13-9.76q3.83-3.57,10.68-3.57T395,41.88a13.63,13.63,0,0,1,4.13,9.76q0.06,0.71.06,2.6t-0.06,2.6q-0.3,6.25-4.07,9.79T384.4,70.17Q377.48,70.17,373.66,66.63Zm15.55-4.37a9,9,0,0,0,1.8-5.72q0.06-.59.06-2.3T391,51.94a9,9,0,0,0-1.83-5.75,6.78,6.78,0,0,0-9.62,0,9,9,0,0,0-1.83,5.75l-0.06,2.3,0.06,2.3a8.86,8.86,0,0,0,1.83,5.72,6.09,6.09,0,0,0,4.84,2,6,6,0,0,0,4.85-1.94h0Z"/><path class="cls-1" d="M408.66,66.63q-3.13-3.54-3.13-9.73V40.32a1.34,1.34,0,0,1,.41-1,1.42,1.42,0,0,1,1-.38h5.31a1.41,1.41,0,0,1,1.42,1.4s0,0,0,0V56.59q0,7.26,6.31,7.26a6.31,6.31,0,0,0,4.87-2,7.52,7.52,0,0,0,1.8-5.31V40.32a1.34,1.34,0,0,1,.41-1,1.42,1.42,0,0,1,1-.38h5.25a1.32,1.32,0,0,1,1.42,1.42V68.21a1.42,1.42,0,0,1-.38,1,1.34,1.34,0,0,1-1,.41h-4.9a1.41,1.41,0,0,1-1.42-1.4s0,0,0,0V65.78q-3.25,4.43-9.79,4.42A10.82,10.82,0,0,1,408.66,66.63Z"/><path class="cls-1" d="M442.91,69.17a1.36,1.36,0,0,1-.41-1V40.32a1.34,1.34,0,0,1,.41-1,1.42,1.42,0,0,1,1-.38h4.9a1.32,1.32,0,0,1,1.42,1.42v2.42a12,12,0,0,1,9.85-4.42,11,11,0,0,1,8.61,3.54q3.19,3.54,3.19,9.74V68.22a1.42,1.42,0,0,1-.38,1,1.34,1.34,0,0,1-1,.41h-5.31a1.41,1.41,0,0,1-1.42-1.4s0,0,0,0V51.94a7.83,7.83,0,0,0-1.68-5.34,6.06,6.06,0,0,0-4.81-1.92,6.33,6.33,0,0,0-4.84,2,7.44,7.44,0,0,0-1.83,5.31V68.17a1.42,1.42,0,0,1-.38,1,1.34,1.34,0,0,1-1,.41H444A1.36,1.36,0,0,1,442.91,69.17Z"/><path class="cls-1" d="M481.66,66.37q-3.19-3.81-3.48-10.18l-0.06-2,0.06-2a16.3,16.3,0,0,1,3.45-10.12q3.22-3.86,9.17-3.86a11.32,11.32,0,0,1,9,3.89V29.1a1.34,1.34,0,0,1,.41-1,1.42,1.42,0,0,1,1-.38h5.13a1.32,1.32,0,0,1,1.42,1.42V68.2a1.42,1.42,0,0,1-.38,1,1.34,1.34,0,0,1-1,.41h-4.82a1.41,1.41,0,0,1-1.42-1.4s0,0,0,0V66q-3.25,4.19-9.38,4.19Q484.8,70.17,481.66,66.37ZM498,61.65a9.53,9.53,0,0,0,1.8-5.34q0.06-.71.06-2.24t-0.06-2.3a8.14,8.14,0,0,0-1.83-5,6.07,6.07,0,0,0-5-2.07q-6.31,0-6.73,7.79l-0.06,1.77L486.27,56q0.41,7.79,6.73,7.79a5.84,5.84,0,0,0,5-2.17h0Z"/><path class="cls-1" d="M515.66,69.17a1.36,1.36,0,0,1-.41-1v-6a1.41,1.41,0,0,1,1.4-1.42h6a1.41,1.41,0,0,1,1.42,1.4s0,0,0,0v6a1.42,1.42,0,0,1-.38,1,1.34,1.34,0,0,1-1,.41h-6A1.36,1.36,0,0,1,515.66,69.17Z"/><path class="cls-1" d="M531.94,69.17a1.36,1.36,0,0,1-.41-1V29.11a1.34,1.34,0,0,1,.41-1,1.42,1.42,0,0,1,1-.38h5.37a1.32,1.32,0,0,1,1.42,1.42V42.6a11.73,11.73,0,0,1,9.5-4.25,11.15,11.15,0,0,1,8.67,3.57q3.24,3.57,3.25,9.71V68.21a1.42,1.42,0,0,1-.38,1,1.34,1.34,0,0,1-1,.41h-5.41a1.44,1.44,0,0,1-1.06-.41,1.36,1.36,0,0,1-.41-1V51.94a7.83,7.83,0,0,0-1.68-5.34,6.06,6.06,0,0,0-4.81-1.92,6.33,6.33,0,0,0-4.84,2,7.44,7.44,0,0,0-1.83,5.31V68.17a1.42,1.42,0,0,1-.38,1,1.34,1.34,0,0,1-1,.41H533A1.36,1.36,0,0,1,531.94,69.17Z"/><path class="cls-1" d="M571.47,66.63q-3.13-3.54-3.13-9.73V40.32a1.34,1.34,0,0,1,.41-1,1.42,1.42,0,0,1,1-.38h5.31a1.41,1.41,0,0,1,1.42,1.4s0,0,0,0V56.59q0,7.26,6.31,7.26a6.31,6.31,0,0,0,4.87-2,7.52,7.52,0,0,0,1.8-5.31V40.32a1.34,1.34,0,0,1,.41-1,1.42,1.42,0,0,1,1-.38h5.25a1.32,1.32,0,0,1,1.42,1.42V68.21a1.42,1.42,0,0,1-.38,1,1.34,1.34,0,0,1-1,.41h-4.9a1.41,1.41,0,0,1-1.42-1.4s0,0,0,0V65.78q-3.25,4.43-9.79,4.42A10.83,10.83,0,0,1,571.47,66.63Z"/><path class="cls-1" d="M613,66v2.18a1.37,1.37,0,0,1-.41,1,1.44,1.44,0,0,1-1.06.41h-4.72a1.41,1.41,0,0,1-1.42-1.4s0,0,0,0V29.11a1.34,1.34,0,0,1,.41-1,1.42,1.42,0,0,1,1-.38h5.13a1.32,1.32,0,0,1,1.42,1.42v13.1a11.21,11.21,0,0,1,9-3.89q6,0,9.17,3.86a16,16,0,0,1,3.39,10.12q0.06,0.71.06,2t-0.06,2q-0.24,6.37-3.42,10.18t-9.14,3.81Q616.25,70.17,613,66Zm13.86-10q0.06-.59.06-1.77t-0.06-1.77q-0.41-7.79-6.73-7.79a6.07,6.07,0,0,0-5,2.07,8.13,8.13,0,0,0-1.83,5q-0.06.71-.06,2.3t0.06,2.24a9.13,9.13,0,0,0,1.77,5.31,5.89,5.89,0,0,0,5,2.18q6.38,0,6.79-7.77h0Z"/></g></svg>