<svg id="Logo" xmlns="http://www.w3.org/2000/svg" viewBox="0 0 297.36 183.76"><defs><style>.cls-1{fill:#002047;}.cls-2{fill:#7ee081;}</style></defs><title>logo-vertical</title><g id="Logo-2" data-name="Logo"><g id="Soundbars"><rect class="cls-1" x="4.26" y="30" width="8" height="50" rx="2" ry="2"/><rect class="cls-2" x="39.42" y="15" width="8" height="80" rx="2" ry="2"/><rect class="cls-1" x="74.59" width="8" height="110" rx="2" ry="2"/><rect class="cls-2" x="109.75" y="15" width="8" height="80" rx="2" ry="2"/><rect class="cls-1" x="144.91" y="30" width="8" height="50" rx="2" ry="2"/><rect class="cls-2" x="180.08" y="15" width="8" height="80" rx="2" ry="2"/><rect class="cls-1" x="215.24" width="8" height="110" rx="2" ry="2"/><rect class="cls-2" x="250.41" y="15" width="8" height="80" rx="2" ry="2"/><rect class="cls-1" x="285.57" y="30" width="8" height="50" rx="2" ry="2"/></g><path class="cls-1" d="M337,362.5a11.83,11.83,0,0,1-4.45-3.16,5.33,5.33,0,0,1-1.45-3.1,1.22,1.22,0,0,1,.38-0.94,1.3,1.3,0,0,1,.91-0.35h4.84a1,1,0,0,1,.83.47l1.33,1.12a7.82,7.82,0,0,0,2.36,1.39,8.19,8.19,0,0,0,2.92.5,7.18,7.18,0,0,0,3.83-.92,2.91,2.91,0,0,0,1.48-2.62,2.73,2.73,0,0,0-.68-1.92,6.12,6.12,0,0,0-2.42-1.36,46.9,46.9,0,0,0-5.22-1.39q-5-1.06-7.4-3.25a7.45,7.45,0,0,1-2.39-5.78,7.81,7.81,0,0,1,1.42-4.45,10.2,10.2,0,0,1,4.22-3.42,15.52,15.52,0,0,1,6.7-1.33,17.12,17.12,0,0,1,6.9,1.27,12,12,0,0,1,4.4,3,5.16,5.16,0,0,1,1.5,3.13,1.31,1.31,0,0,1-1.3,1.3h-4.43a1.18,1.18,0,0,1-1-.47q-0.41-.29-1.33-1.09a7.55,7.55,0,0,0-2-1.27,7,7,0,0,0-2.71-.47,5.27,5.27,0,0,0-3.36.94,3,3,0,0,0-1.18,2.48,2.76,2.76,0,0,0,.56,1.77,5.18,5.18,0,0,0,2.27,1.33,35.72,35.72,0,0,0,5.13,1.27q10.62,2.07,10.62,9.26a8,8,0,0,1-3.63,6.79q-3.63,2.6-10.12,2.6A18.24,18.24,0,0,1,337,362.5Z" transform="translate(-331.09 -180.09)"/><path class="cls-1" d="M367.13,360.32q-3.78-3.54-4.07-9.79l-0.06-2.6,0.06-2.6a13.62,13.62,0,0,1,4.13-9.76Q371,332,377.87,332t10.62,3.57a13.63,13.63,0,0,1,4.13,9.76q0.06,0.71.06,2.6t-0.06,2.6q-0.3,6.25-4.07,9.79t-10.68,3.54Q370.91,363.86,367.13,360.32ZM382.68,356a9,9,0,0,0,1.8-5.72q0.06-.59.06-2.3t-0.06-2.3a9,9,0,0,0-1.83-5.75,6,6,0,0,0-4.78-2,6.05,6.05,0,0,0-4.84,2,9,9,0,0,0-1.83,5.75l-0.06,2.3,0.06,2.3A8.87,8.87,0,0,0,373,356a6.09,6.09,0,0,0,4.84,1.95A6,6,0,0,0,382.68,356Z" transform="translate(-331.09 -180.09)"/><path class="cls-1" d="M402.06,360.32q-3.13-3.54-3.13-9.73V334a1.34,1.34,0,0,1,.41-1,1.42,1.42,0,0,1,1-.38h5.31a1.41,1.41,0,0,1,1.42,1.42v16.22q0,7.26,6.31,7.26a6.31,6.31,0,0,0,4.87-1.95,7.52,7.52,0,0,0,1.8-5.31V334a1.34,1.34,0,0,1,.41-1,1.42,1.42,0,0,1,1-.38h5.25a1.32,1.32,0,0,1,1.42,1.42v27.85a1.42,1.42,0,0,1-.38,1,1.34,1.34,0,0,1-1,.41h-4.9a1.41,1.41,0,0,1-1.42-1.42v-2.42q-3.25,4.43-9.79,4.42A10.83,10.83,0,0,1,402.06,360.32Z" transform="translate(-331.09 -180.09)"/><path class="cls-1" d="M436.34,362.85a1.36,1.36,0,0,1-.41-1V334a1.34,1.34,0,0,1,.41-1,1.42,1.42,0,0,1,1-.38h4.9a1.32,1.32,0,0,1,1.42,1.42v2.42a12,12,0,0,1,9.85-4.42,11,11,0,0,1,8.61,3.54q3.19,3.54,3.19,9.74v16.58a1.42,1.42,0,0,1-.38,1,1.34,1.34,0,0,1-1,.41h-5.31a1.41,1.41,0,0,1-1.42-1.42V345.63a7.83,7.83,0,0,0-1.68-5.34,6.06,6.06,0,0,0-4.81-1.92,6.33,6.33,0,0,0-4.84,1.95,7.44,7.44,0,0,0-1.83,5.31v16.22a1.42,1.42,0,0,1-.38,1,1.34,1.34,0,0,1-1,.41h-5.25A1.36,1.36,0,0,1,436.34,362.85Z" transform="translate(-331.09 -180.09)"/><path class="cls-1" d="M475,360.05q-3.19-3.81-3.48-10.18l-0.06-1.95,0.06-1.95A16.3,16.3,0,0,1,475,335.86q3.22-3.86,9.18-3.86a11.32,11.32,0,0,1,9,3.89v-13.1a1.34,1.34,0,0,1,.41-1,1.42,1.42,0,0,1,1-.38h5.13a1.32,1.32,0,0,1,1.42,1.42v39.06a1.42,1.42,0,0,1-.38,1,1.34,1.34,0,0,1-1,.41H495a1.41,1.41,0,0,1-1.42-1.42v-2.18q-3.25,4.19-9.38,4.19Q478.23,363.86,475,360.05Zm16.37-4.72a9.53,9.53,0,0,0,1.8-5.34q0.06-.71.06-2.24t-0.06-2.3a8.14,8.14,0,0,0-1.83-5,6.07,6.07,0,0,0-5-2.07q-6.31,0-6.73,7.79l-0.06,1.77,0.06,1.77q0.41,7.79,6.73,7.79A5.84,5.84,0,0,0,491.42,355.33Z" transform="translate(-331.09 -180.09)"/><path class="cls-1" d="M509.09,362.85a1.36,1.36,0,0,1-.41-1v-6a1.41,1.41,0,0,1,1.42-1.42h6a1.41,1.41,0,0,1,1.42,1.42v6a1.42,1.42,0,0,1-.38,1,1.34,1.34,0,0,1-1,.41h-6A1.36,1.36,0,0,1,509.09,362.85Z" transform="translate(-331.09 -180.09)"/><path class="cls-2" d="M525.37,362.85a1.36,1.36,0,0,1-.41-1V322.79a1.34,1.34,0,0,1,.41-1,1.42,1.42,0,0,1,1-.38h5.37a1.32,1.32,0,0,1,1.42,1.42v13.45a11.73,11.73,0,0,1,9.5-4.25,11.15,11.15,0,0,1,8.67,3.57q3.24,3.57,3.25,9.71v16.58a1.42,1.42,0,0,1-.38,1,1.34,1.34,0,0,1-1,.41h-5.37a1.44,1.44,0,0,1-1.06-.41,1.36,1.36,0,0,1-.41-1V345.63a7.83,7.83,0,0,0-1.68-5.34,6.06,6.06,0,0,0-4.81-1.92,6.33,6.33,0,0,0-4.84,1.95,7.44,7.44,0,0,0-1.83,5.31v16.22a1.42,1.42,0,0,1-.38,1,1.34,1.34,0,0,1-1,.41h-5.37A1.36,1.36,0,0,1,525.37,362.85Z" transform="translate(-331.09 -180.09)"/><path class="cls-2" d="M564.9,360.32q-3.13-3.54-3.13-9.73V334a1.34,1.34,0,0,1,.41-1,1.42,1.42,0,0,1,1-.38h5.31a1.41,1.41,0,0,1,1.42,1.42v16.22q0,7.26,6.31,7.26a6.31,6.31,0,0,0,4.87-1.95,7.52,7.52,0,0,0,1.8-5.31V334a1.34,1.34,0,0,1,.41-1,1.42,1.42,0,0,1,1-.38h5.25A1.32,1.32,0,0,1,591,334v27.85a1.42,1.42,0,0,1-.38,1,1.34,1.34,0,0,1-1,.41h-4.9a1.41,1.41,0,0,1-1.42-1.42v-2.42q-3.25,4.43-9.79,4.42A10.83,10.83,0,0,1,564.9,360.32Z" transform="translate(-331.09 -180.09)"/><path class="cls-2" d="M606.44,359.67v2.18a1.37,1.37,0,0,1-.41,1,1.44,1.44,0,0,1-1.06.41h-4.72a1.41,1.41,0,0,1-1.42-1.42V322.79a1.34,1.34,0,0,1,.41-1,1.42,1.42,0,0,1,1-.38h5.13a1.32,1.32,0,0,1,1.42,1.42v13.1a11.21,11.21,0,0,1,9-3.89q6,0,9.17,3.86A16,16,0,0,1,628.38,346q0.06,0.71.06,1.95t-0.06,1.95q-0.24,6.37-3.42,10.18t-9.14,3.81Q609.68,363.86,606.44,359.67Zm13.86-10q0.06-.59.06-1.77t-0.06-1.77q-0.41-7.79-6.73-7.79a6.07,6.07,0,0,0-5,2.07,8.13,8.13,0,0,0-1.83,5q-0.06.71-.06,2.3t0.06,2.24a9.13,9.13,0,0,0,1.77,5.31,5.89,5.89,0,0,0,5,2.18Q619.89,357.49,620.3,349.7Z" transform="translate(-331.09 -180.09)"/></g></svg>