<svg id="Logo" xmlns="http://www.w3.org/2000/svg" viewBox="0 0 588.77 405.95"><defs><style>.cls-1{fill:#f9f9f9;stroke:#000;}.cls-1,.cls-2{stroke-miterlimit:10;}.cls-2{fill:none;stroke:#002047;}</style></defs><title>logo-card</title><rect class="cls-1" x="208.98" y="121.9" width="542.05" height="316.19" rx="4" ry="4" transform="translate(-129.17 -156.75) rotate(10.09)"/><g id="Logo-2" data-name="Logo"><g id="Soundbars"><rect class="cls-2" x="345.38" y="186.16" width="8" height="50" rx="2" ry="2" transform="translate(-143.24 -134.94) rotate(10.09)"/><rect class="cls-2" x="380" y="177.32" width="8" height="80" rx="2" ry="2" transform="translate(-141.63 -140.91) rotate(10.09)"/><rect class="cls-2" x="414.62" y="168.47" width="8" height="110" rx="2" ry="2" transform="translate(-140.02 -146.88) rotate(10.09)"/><rect class="cls-2" x="449.24" y="189.63" width="8" height="80" rx="2" ry="2" transform="translate(-138.4 -152.84) rotate(10.09)"/><rect class="cls-2" x="483.86" y="210.79" width="8" height="50" rx="2" ry="2" transform="translate(-136.79 -158.81) rotate(10.09)"/><rect class="cls-2" x="518.48" y="201.95" width="8" height="80" rx="2" ry="2" transform="translate(-135.18 -164.78) rotate(10.09)"/><rect class="cls-2" x="553.1" y="193.1" width="8" height="110" rx="2" ry="2" transform="translate(-133.56 -170.75) rotate(10.09)"/><rect class="cls-2" x="587.72" y="214.26" width="8" height="80" rx="2" ry="2" transform="translate(-131.95 -176.71) rotate(10.09)"/><rect class="cls-2" x="622.34" y="235.42" width="8" height="50" rx="2" ry="2" transform="translate(-130.34 -182.68) rotate(10.09)"/></g><path class="cls-2" d="M324.75,336.18a11.82,11.82,0,0,1-3.83-3.89A5.33,5.33,0,0,1,320,329a1.22,1.22,0,0,1,.54-0.86,1.3,1.3,0,0,1,1-.19l4.76,0.85a1,1,0,0,1,.73.61q0.25,0.28,1.11,1.34a7.84,7.84,0,0,0,2.08,1.78,8.19,8.19,0,0,0,2.79,1,7.17,7.17,0,0,0,3.94-.23,2.91,2.91,0,0,0,1.91-2.33,2.73,2.73,0,0,0-.33-2,6.13,6.13,0,0,0-2.14-1.76,46.66,46.66,0,0,0-4.9-2.28q-4.75-1.92-6.72-4.49a7.46,7.46,0,0,1-1.34-6.11,7.81,7.81,0,0,1,2.17-4.14,10.2,10.2,0,0,1,4.75-2.63,15.54,15.54,0,0,1,6.83-.13,17.13,17.13,0,0,1,6.57,2.46,12,12,0,0,1,3.8,3.76,5.16,5.16,0,0,1,.93,3.34A1.31,1.31,0,0,1,347,318l-4.36-.78a1.18,1.18,0,0,1-.91-0.64q-0.36-.36-1.12-1.31a7.54,7.54,0,0,0-1.78-1.61,7,7,0,0,0-2.59-.94,5.27,5.27,0,0,0-3.48.34,3,3,0,0,0-1.6,2.23,2.76,2.76,0,0,0,.24,1.84,5.18,5.18,0,0,0,2,1.71,35.68,35.68,0,0,0,4.83,2.15q10.09,3.89,8.83,11a8,8,0,0,1-4.76,6q-4,1.92-10.42.78A18.22,18.22,0,0,1,324.75,336.18Z" transform="translate(-185.62 -77.02)"/><path class="cls-2" d="M354.81,339.31q-3.1-4.15-2.29-10.36l0.4-2.57,0.51-2.54a13.62,13.62,0,0,1,5.78-8.89q4.4-2.84,11.14-1.64t9.83,5.37A13.63,13.63,0,0,1,382.53,329q-0.07.71-.4,2.57t-0.51,2.55q-1.39,6.11-5.72,8.93t-11.13,1.62Q357.91,343.46,354.81,339.31Zm16.07-1.58a9,9,0,0,0,2.77-5.32q0.16-.57.46-2.25t0.34-2.28a9,9,0,0,0-.79-6,6,6,0,0,0-4.36-2.78,6.06,6.06,0,0,0-5.11,1.1,9,9,0,0,0-2.81,5.34l-0.46,2.26-0.34,2.28a8.87,8.87,0,0,0,.8,6,6.1,6.1,0,0,0,4.42,2.76A6,6,0,0,0,370.88,337.74Z" transform="translate(-185.62 -77.02)"/><path class="cls-2" d="M389.2,345.43q-2.46-4-1.37-10.13l2.9-16.32a1.34,1.34,0,0,1,.59-0.94,1.42,1.42,0,0,1,1.05-.2l5.23,0.93a1.41,1.41,0,0,1,1.15,1.64l-2.84,16q-1.27,7.15,4.94,8.25a6.31,6.31,0,0,0,5.13-1.06,7.52,7.52,0,0,0,2.7-4.91l2.84-16a1.34,1.34,0,0,1,.59-0.94,1.42,1.42,0,0,1,1.05-.2l5.17,0.92a1.32,1.32,0,0,1,1.15,1.64l-4.88,27.42a1.42,1.42,0,0,1-.55.92,1.35,1.35,0,0,1-1.09.23l-4.82-.86a1.41,1.41,0,0,1-1.15-1.64l0.42-2.38q-4,3.79-10.42,2.64A10.83,10.83,0,0,1,389.2,345.43Z" transform="translate(-185.62 -77.02)"/><path class="cls-2" d="M422.51,353.93a1.36,1.36,0,0,1-.23-1.06l4.88-27.42a1.34,1.34,0,0,1,.59-0.94,1.42,1.42,0,0,1,1.05-.2l4.82,0.86a1.32,1.32,0,0,1,1.15,1.64l-0.42,2.38a12,12,0,0,1,10.48-2.63,11,11,0,0,1,7.86,5q2.52,4,1.43,10.14L451.2,358a1.42,1.42,0,0,1-.55.92,1.34,1.34,0,0,1-1.09.23l-5.23-.93a1.41,1.41,0,0,1-1.15-1.64l2.84-16a7.83,7.83,0,0,0-.72-5.55,6.06,6.06,0,0,0-4.4-2.73,6.32,6.32,0,0,0-5.1,1.07,7.44,7.44,0,0,0-2.73,4.91l-2.84,16a1.42,1.42,0,0,1-.55.92,1.34,1.34,0,0,1-1.09.23l-5.17-.92A1.36,1.36,0,0,1,422.51,353.93Z" transform="translate(-185.62 -77.02)"/><path class="cls-2" d="M461.1,357.95q-2.47-4.31-1.65-10.63l0.28-1.93,0.4-1.91a16.3,16.3,0,0,1,5.17-9.36q3.84-3.24,9.71-2.2a11.32,11.32,0,0,1,8.2,5.41l2.29-12.89a1.34,1.34,0,0,1,.59-0.95,1.42,1.42,0,0,1,1.05-.2l5.05,0.9a1.32,1.32,0,0,1,1.15,1.64l-6.84,38.45a1.43,1.43,0,0,1-.55.92,1.35,1.35,0,0,1-1.09.23l-4.7-.84A1.41,1.41,0,0,1,479,363l0.38-2.15q-3.93,3.56-10,2.48Q463.57,362.25,461.1,357.95ZM478,356.17a9.53,9.53,0,0,0,2.71-4.94q0.18-.69.45-2.2t0.34-2.28a8.14,8.14,0,0,0-.92-5.26,6.07,6.07,0,0,0-4.52-2.9q-6.22-1.11-8,6.49l-0.37,1.73-0.25,1.75q-1,7.74,5.26,8.85A5.84,5.84,0,0,0,478,356.17Z" transform="translate(-185.62 -77.02)"/><path class="cls-2" d="M494.13,366.67a1.37,1.37,0,0,1-.23-1.06l1-5.87a1.41,1.41,0,0,1,1.64-1.15l5.87,1a1.41,1.41,0,0,1,1.15,1.64l-1,5.87a1.42,1.42,0,0,1-.55.92,1.34,1.34,0,0,1-1.09.23l-5.87-1A1.37,1.37,0,0,1,494.13,366.67Z" transform="translate(-185.62 -77.02)"/><path class="cls-2" d="M510.16,369.52a1.36,1.36,0,0,1-.23-1.06L516.77,330a1.34,1.34,0,0,1,.59-0.94,1.42,1.42,0,0,1,1.05-.2l5.29,0.94a1.32,1.32,0,0,1,1.15,1.64l-2.36,13.24a11.73,11.73,0,0,1,10.1-2.52,11.15,11.15,0,0,1,7.91,5q2.57,4.08,1.5,10.12l-2.9,16.32a1.42,1.42,0,0,1-.55.92,1.35,1.35,0,0,1-1.09.23l-5.29-.94a1.44,1.44,0,0,1-1-.59,1.36,1.36,0,0,1-.23-1.06l2.84-16a7.83,7.83,0,0,0-.72-5.55,6.06,6.06,0,0,0-4.4-2.73,6.32,6.32,0,0,0-5.1,1.07,7.44,7.44,0,0,0-2.73,4.91l-2.84,16a1.42,1.42,0,0,1-.55.92,1.35,1.35,0,0,1-1.09.23l-5.29-.94A1.37,1.37,0,0,1,510.16,369.52Z" transform="translate(-185.62 -77.02)"/><path class="cls-2" d="M549.52,373.94q-2.46-4-1.37-10.13l2.9-16.32a1.34,1.34,0,0,1,.59-0.94,1.42,1.42,0,0,1,1.05-.2l5.23,0.93a1.41,1.41,0,0,1,1.15,1.64l-2.84,16q-1.27,7.14,4.94,8.25a6.31,6.31,0,0,0,5.13-1.06,7.52,7.52,0,0,0,2.7-4.91l2.84-16a1.34,1.34,0,0,1,.59-0.95,1.43,1.43,0,0,1,1.05-.2l5.17,0.92a1.32,1.32,0,0,1,1.15,1.64L574.93,380a1.42,1.42,0,0,1-.55.92,1.35,1.35,0,0,1-1.09.23l-4.82-.86a1.41,1.41,0,0,1-1.15-1.64l0.42-2.38q-4,3.79-10.42,2.64A10.83,10.83,0,0,1,549.52,373.94Z" transform="translate(-185.62 -77.02)"/><path class="cls-2" d="M590.53,380.58l-0.38,2.15a1.37,1.37,0,0,1-.58.92,1.44,1.44,0,0,1-1.12.22L583.8,383a1.41,1.41,0,0,1-1.15-1.64l6.84-38.45a1.34,1.34,0,0,1,.59-0.94,1.42,1.42,0,0,1,1.05-.2l5.05,0.9a1.32,1.32,0,0,1,1.15,1.64L595,357.23a11.21,11.21,0,0,1,9.57-2.25q5.87,1,8.36,5.41a16.05,16.05,0,0,1,1.57,10.56c0,0.47-.14,1.11-0.28,1.93s-0.27,1.41-.4,1.91q-1.35,6.23-5.15,9.42T599,386.35Q593,385.27,590.53,380.58Zm15.4-7.39q0.16-.57.37-1.73t0.25-1.75q1-7.74-5.26-8.85A6.07,6.07,0,0,0,596,362a8.13,8.13,0,0,0-2.68,4.62q-0.18.69-.46,2.26t-0.33,2.22a9.13,9.13,0,0,0,.81,5.54,5.89,5.89,0,0,0,4.56,3Q604.16,380.78,605.93,373.19Z" transform="translate(-185.62 -77.02)"/></g></svg>